:SAMPLES-PER-SECOND 30
:FRAME-RANGE 1-2045
:FULLY-SPECIFIED
:DEGREES
256
root  -6.42995 35.2425 36.3984 -5.24995 31.6049 -0.72925
RightUpLeg  -26.3015 -11.3795 -7.64765
RightLeg  50.3379 -2.26328 -3.30001
RightFoot  -15.9755 0.151289 6.41248
RightToes  5.82063e-011 0 -3.6325e-017
Spine  19.9571 -1.96111 5.81198
Spine1  1.1501 -2.2351 5.62863
HEad  -6.93095 -11.42 -1.49559
LeftShoulder1  2.04389 -4.79807 -18.0283
LeftArm  17.587 -45.0808 -25.5022
LeftForeArm  -2.71902 -15.8291 -11.8191
LeftHand  0.283612 -2.3555 -4.07008
RightShoulder  8.19797 21.476 26.6231
RightArm  -11.9159 18.4388 5.98785
RightForeArm  -21.1589 24.602 6.26662
RightHand  0.887948 3.29667 11.5849
LeftUpLeg  -25.6491 8.115 24.6286
LeftLeg  34.0191 -5.25388 -3.46086
LeftFoot  -7.26183 0.253502 -5.89307
LeftToes  -3.90176e-010 -2.48536e-010 1.05482e-011
257
root  -4.84381 35.3192 36.3433 -5.73262 31.2538 -1.14123
RightUpLeg  -23.715 -11.3364 -10.2284
RightLeg  48.6445 -1.39837 -2.05706
RightFoot  -16.087 0.251384 8.68961
RightToes  5.82063e-011 0 -3.6325e-017
Spine  19.3151 -2.07037 5.72632
Spine1  0.98536 -2.20597 4.94241
HEad  -6.40383 -11.3921 -1.66862
LeftShoulder1  1.99832 -4.77619 -17.5027
LeftArm  15.7747 -45.3971 -24.2878
LeftForeArm  -2.15546 -15.9406 -11.6301
LeftHand  0.271267 -2.38255 -3.86885
RightShoulder  7.56863 21.1529 24.4162
RightArm  -12.2029 18.8614 5.15138
RightForeArm  -21.0483 25.5813 6.49097
RightHand  0.865142 3.04441 11.6404
LeftUpLeg  -22.726 8.83136 25.679
LeftLeg  28.5838 -4.22772 -2.15939
LeftFoot  -6.54589 0.254049 -5.12824
LeftToes  -3.90176e-010 -2.48536e-010 1.05482e-011
258
root  -3.17567 35.3443 36.2599 -6.25715 31.1975 -1.47113
RightUpLeg  -20.8355 -10.684 -13.0663
RightLeg  46.6568 -0.889239 -1.34249
RightFoot  -16.0386 0.371301 11.6779
RightToes  5.82063e-011 0 -3.6325e-017
Spine  18.5443 -2.13464 4.63276
Spine1  0.861544 -2.49945 5.27907
HEad  -5.8008 -11.1766 -1.72813
LeftShoulder1  1.95187 -4.7779 -16.8886
LeftArm  13.2618 -46.6155 -23.5661
LeftForeArm  -1.01275 -15.8364 -11.577
LeftHand  0.248826 -2.29467 -3.58116
RightShoulder  7.02413 20.8314 22.4913
RightArm  -12.3377 19.2301 4.58222
RightForeArm  -20.008 26.8639 6.75296
RightHand  0.867029 3.06684 11.6334
LeftUpLeg  -20.8808 12.3746 25.5237
LeftLeg  28.494 -3.31178 -1.61074
LeftFoot  -3.61082 1.05638 -15.2416
LeftToes  -3.90176e-010 -2.48536e-010 1.05482e-011
259
root  -1.41071 35.2166 36.1333 -7.114 32.1311 -1.84742
RightUpLeg  -17.4435 -9.61798 -16.219
RightLeg  44.9119 -0.940586 -1.32255
RightFoot  -15.9092 0.505034 15.2998
RightToes  5.82063e-011 0 -3.6325e-017
Spine  18.2144 -2.09139 2.44138
Spine1  0.398135 -3.25016 7.80469
HEad  -5.75488 -11.3248 -1.41938
LeftShoulder1  1.91619 -4.86256 -16.1653
LeftArm  9.37962 -49.367 -23.6827
LeftForeArm  0.743476 -15.0262 -12.0574
LeftHand  0.230026 -2.11374 -3.39226
RightShoulder  6.61982 20.0575 21.691
RightArm  -13.109 19.6328 3.48315
RightForeArm  -18.8053 28.9459 7.21534
RightHand  0.87919 2.98166 11.9252
LeftUpLeg  -21.8166 16.5442 24.1488
LeftLeg  33.4076 -6.07066 -3.95012
LeftFoot  -3.54255 1.34753 -19.3003
LeftToes  -3.90176e-010 -2.48536e-010 1.05482e-011
260
root  0.350059 35.1788 36.015 -7.62648 33.7867 -0.993722
RightUpLeg  -13.0962 -7.58188 -20.2403
RightLeg  42.3113 -2.08648 -2.33175
RightFoot  -15.0713 0.538669 19.5314
RightToes  5.82063e-011 0 -3.6325e-017
Spine  17.2981 -2.17984 -0.194903
Spine1  1.08232 -4.04597 9.03259
HEad  -6.14565 -12.4452 -0.940922
LeftShoulder1  1.91391 -5.19387 -15.1848
LeftArm  4.21959 -53.4343 -24.5939
LeftForeArm  4.13723 -13.5392 -12.8708
LeftHand  0.213557 -1.92486 -3.23516
RightShoulder  6.38061 18.8722 22.1578
RightArm  -16.235 18.868 2.58092
RightForeArm  -17.3238 33.0575 8.24073
RightHand  0.86255 2.69327 12.1375
LeftUpLeg  -22.6068 18.1652 21.0174
LeftLeg  38.5161 -7.74656 -6.2049
LeftFoot  -5.13298 0.935852 -16.5936
LeftToes  -3.90176e-010 -2.48536e-010 1.05482e-011
261
root  2.12024 35.3236 35.8724 -8.12382 33.9947 -0.132235
RightUpLeg  -9.37983 -3.02126 -22.8857
RightLeg  39.2149 -5.2343 -4.83885
RightFoot  -12.2775 0.0897909 21.0615
RightToes  5.82063e-011 0 -3.6325e-017
Spine  16.6804 -2.13764 -1.24757
Spine1  1.21747 -4.01544 8.06132
HEad  -5.49758 -13.6352 -1.48506
LeftShoulder1  1.92402 -5.41596 -14.7095
LeftArm  1.44166 -57.3271 -26.4202
LeftForeArm  6.53505 -12.6584 -13.254
LeftHand  0.194746 -1.76089 -3.01843
RightShoulder  6.25336 17.6523 23.2827
RightArm  -19.5324 17.6286 2.32272
RightForeArm  -15.4806 38.7835 9.88748
RightHand  0.844041 2.33643 12.4533
LeftUpLeg  -21.5761 19.5486 18.3889
LeftLeg  41.9267 -8.04881 -7.29714
LeftFoot  -7.41469 0.515795 -13.7019
LeftToes  -3.90176e-010 -2.48536e-010 1.05482e-011
262
root  3.88408 35.627 35.6506 -8.10973 32.3971 0.248075
RightUpLeg  -8.86506 0.46155 -23.9866
RightLeg  38.2006 -10.0747 -8.66118
RightFoot  -5.98378 -0.85286 17.2307
RightToes  5.82063e-011 0 -3.6325e-017
Spine  15.8817 -1.84115 -1.17646
Spine1  0.946054 -3.61302 7.9006
HEad  -5.47733 -13.6093 -2.92145
LeftShoulder1  1.9031 -5.37109 -14.5705
LeftArm  2.08583 -59.5759 -28.0026
LeftForeArm  5.76632 -13.825 -12.4149
LeftHand  0.185575 -1.83802 -2.83125
RightShoulder  6.18193 17.1221 23.7276
RightArm  -20.9928 17.3326 2.60506
RightForeArm  -13.4347 44.3021 11.7797
RightHand  0.777359 1.92568 12.143
LeftUpLeg  -19.9338 20.4374 16.3025
LeftLeg  43.7084 -6.96433 -6.68787
LeftFoot  -10.4036 0.160451 -11.979
LeftToes  -3.90176e-010 -2.48536e-010 1.05482e-011
263
root  5.52022 36.0813 35.4339 -7.6175 29.9127 0.998442
RightUpLeg  -10.0795 -1.17217 -24.4019
RightLeg  38.4009 -14.9593 -12.6249
RightFoot  -0.130517 -1.02563 10.4138
RightToes  5.82063e-011 0 -3.6325e-017
Spine  15.0911 -1.6601 -1.12524
Spine1  0.854948 -3.30949 7.70379
HEad  -6.04264 -11.8742 -4.19096
LeftShoulder1  1.83075 -5.20487 -14.1075
LeftArm  2.46724 -60.7058 -27.5939
LeftForeArm  4.44041 -15.4893 -11.128
LeftHand  0.182902 -2.03114 -2.75434
RightShoulder  6.35337 17.8655 23.4623
RightArm  -19.153 17.8807 3.25458
RightForeArm  -12.6519 49.1208 13.8685
RightHand  0.645772 1.20671 11.2457
LeftUpLeg  -17.5084 20.6483 13.7944
LeftLeg  43.2259 -4.94735 -4.56975
LeftFoot  -12.5749 -0.0415691 -10.8152
LeftToes  -3.90176e-010 -2.48536e-010 1.05482e-011
264
root  6.93383 36.539 35.2846 -7.30407 27.0212 1.52446
RightUpLeg  -11.4209 -6.24832 -23.2693
RightLeg  38.2378 -9.65041 -8.32719
RightFoot  -2.44691 -0.959324 12.0774
RightToes  5.82063e-011 0 -3.6325e-017
Spine  14.6159 -1.58777 -1.02388
Spine1  0.602615 -3.09856 7.10227
HEad  -6.53841 -9.08361 -5.12508
LeftShoulder1  1.73626 -5.04738 -13.3175
LeftArm  -0.76542 -61.1582 -25.2365
LeftForeArm  4.50412 -16.0797 -10.499
LeftHand  0.186474 -1.95267 -2.79086
RightShoulder  6.45751 19.3599 21.8604
RightArm  -13.3722 18.729 4.77096
RightForeArm  -13.1423 54.0571 16.6543
RightHand  0.513656 0.128248 10.8207
LeftUpLeg  -14.822 21.5091 11.8004
LeftLeg  41.82 -3.11283 -2.58928
LeftFoot  -13.9801 -0.148285 -10.0465
LeftToes  -3.90176e-010 -2.48536e-010 1.05482e-011
265
root  8.20592 37.0332 35.1942 -7.17426 24.0721 1.82232
RightUpLeg  -12.8094 -12.0934 -20.0849
RightLeg  40.8202 -10.1409 -9.52976
RightFoot  -6.52315 -0.547873 11.9231
RightToes  5.82063e-011 0 -3.6325e-017
Spine  14.2543 -1.73968 -0.345627
Spine1  0.0893628 -2.97783 6.22051
HEad  -6.29878 -5.56211 -6.25481
LeftShoulder1  1.66411 -4.93799 -12.6647
LeftArm  -8.78548 -61.0601 -21.6071
LeftForeArm  6.8685 -14.9624 -10.9964
LeftHand  0.198343 -1.83251 -3.03983
RightShoulder  6.39666 21.2943 19.2065
RightArm  -4.65616 19.7687 7.32737
RightForeArm  -13.2685 58.9268 20.2527
RightHand  0.452289 -0.843937 11.7364
LeftUpLeg  -11.9051 22.6694 10.2107
LeftLeg  39.5631 -1.45265 -0.903925
LeftFoot  -14.4969 -0.168919 -9.26425
LeftToes  -3.90176e-010 -2.48536e-010 1.05482e-011
266
root  9.39665 37.5332 35.1515 -6.67856 21.2335 2.00225
RightUpLeg  -13.8357 -17.4063 -15.6256
RightLeg  43.3373 -13.7454 -13.7789
RightFoot  -10.5981 -0.138779 10.2402
RightToes  5.82063e-011 0 -3.6325e-017
Spine  13.4616 -2.10458 0.849473
Spine1  -0.702167 -2.96142 5.41018
HEad  -5.52874 -1.57156 -7.31463
LeftShoulder1  1.62186 -4.9605 -12.0552
LeftArm  -17.3828 -60.1362 -17.5346
LeftForeArm  8.72119 -13.5638 -11.5478
LeftHand  0.216344 -1.66015 -3.42808
RightShoulder  6.4442 23.7491 16.8372
RightArm  3.6784 21.1413 10.0395
RightForeArm  -10.9618 63.027 24.1594
RightHand  0.458315 -1.43313 13.7823
LeftUpLeg  -10.1106 23.8313 8.78169
LeftLeg  37.9676 -0.161855 0.239244
LeftFoot  -13.8346 -0.142207 -10.3126
LeftToes  -3.90176e-010 -2.48536e-010 1.05482e-011
267
root  10.4033 37.7727 35.1341 -5.85161 18.419 2.14686
RightUpLeg  -14.4516 -20.3535 -10.6812
RightLeg  43.7836 -12.4986 -12.8116
RightFoot  -12.7292 0.0619941 12.2373
RightToes  5.82063e-011 0 -3.6325e-017
Spine  12.3333 -2.06184 1.84137
Spine1  -0.897684 -2.64185 4.83542
HEad  -5.8722 1.53616 -7.69992
LeftShoulder1  1.53381 -4.92357 -10.9901
LeftArm  -26.7902 -59.6962 -12.9734
LeftForeArm  11.5269 -11.6787 -12.1012
LeftHand  0.238072 -1.59983 -3.82561
RightShoulder  6.52368 26.3754 14.8097
RightArm  7.7342 22.6607 11.4153
RightForeArm  -5.9603 67.1204 29.4216
RightHand  0.438383 -1.89438 15.0548
LeftUpLeg  -11.3323 25.6636 8.04804
LeftLeg  40.9497 -0.468733 -0.0491085
LeftFoot  -11.6233 0.0354802 -13.7158
LeftToes  -3.90176e-010 -2.48536e-010 1.05482e-011
268
root  11.2812 37.6414 35.1237 -5.23975 15.871 2.51403
RightUpLeg  -14.4243 -20.1345 -6.35631
RightLeg  43.5443 -7.63242 -8.00636
RightFoot  -16.289 0.375971 11.2352
RightToes  5.82063e-011 0 -3.6325e-017
Spine  11.5705 -1.74482 2.49554
Spine1  -0.563749 -2.07076 4.39057
HEad  -7.71769 3.56096 -7.33535
LeftShoulder1  1.35858 -4.80819 -8.92335
LeftArm  -37.0778 -60.0229 -7.27011
LeftForeArm  14.131 -9.22686 -12.5796
LeftHand  0.264849 -1.36264 -4.44608
RightShoulder  6.47918 28.711 12.8754
RightArm  4.96739 25.3802 11.1821
RightForeArm  0.364732 69.317 32.8585
RightHand  0.562913 -1.29587 16.2413
LeftUpLeg  -14.6826 28.0615 8.18153
LeftLeg  48.294 -3.19793 -3.41358
LeftFoot  -7.32177 0.648346 -17.1224
LeftToes  -3.90176e-010 -2.48536e-010 1.05482e-011
